<?xml version="1.0" encoding="utf-8"?>
<!-- Generator: Adobe Illustrator 24.0.1, SVG Export Plug-In . SVG Version: 6.00 Build 0)  -->
<svg version="1.1" id="Layer_1" xmlns="http://www.w3.org/2000/svg" xmlns:xlink="http://www.w3.org/1999/xlink" x="0px" y="0px"
	 viewBox="0 0 120 36" style="enable-background:new 0 0 120 36;" xml:space="preserve">
<style type="text/css">
	.st0{fill:#FFB1EC;}
	.st1{fill:none;stroke:#FF00FF;stroke-width:0.25;stroke-miterlimit:10;}
</style>
<g>
	<g>
		<path class="st0" d="M9.72,12.24H6.57v-1.28h8.34v1.28h-3.13v11.68H9.72V12.24z"/>
		<path class="st0" d="M16.19,17.41c0-1.59,0.01-2.48-0.03-3.36h1.97c0.03,0.26,0.07,0.88,0.07,1.54c0.55-1.22,1.82-1.66,3.12-1.68
			v1.7c-1.83,0.01-3.07,0.71-3.07,2.5v5.81h-2.07V17.41z"/>
		<path class="st0" d="M29.68,22.21c0,0.67,0.02,1.42,0.06,1.71h-1.92c-0.07-0.24-0.14-0.63-0.16-0.8
			c-0.48,0.73-1.39,0.96-2.42,0.96c-2.14,0-2.99-1.27-2.99-2.79v-0.17c0-2.23,2.08-3.02,4.72-3.02c0.2,0,0.38,0,0.64,0v-1.56
			c0-0.89-0.23-1.46-1.39-1.46c-1.15,0-1.47,0.59-1.47,1.36v0.26h-2.04v-0.25c0-1.38,0.81-2.55,3.58-2.55
			c2.58,0,3.39,1.08,3.39,2.53V22.21z M27.65,19.19c-0.18,0-0.54,0-0.72,0c-1.68,0-2.68,0.47-2.68,1.89v0.17
			c0,0.88,0.41,1.59,1.57,1.59c1.36,0,1.83-0.73,1.83-2.2V19.19z"/>
		<path class="st0" d="M32.43,17.05c0-1.98,0-2.52-0.03-3.01h1.97c0.04,0.22,0.08,0.57,0.08,0.99c0.44-0.72,1.32-1.14,2.71-1.14
			c1.62,0,2.92,0.62,2.92,2.43v7.6h-2.07v-7.33c0-0.96-0.48-1.44-1.56-1.44c-1.24,0-1.97,0.41-1.97,2.28v6.49h-2.07V17.05z"/>
		<path class="st0" d="M50.12,10.39v10.98c0,1.17,0,1.99,0.03,2.54h-1.97c-0.04-0.19-0.08-0.73-0.08-0.97
			c-0.38,0.61-1.06,1.13-2.58,1.13c-2.49,0-3.12-1.32-3.12-3.21v-4.05c0-1.75,1.04-2.93,3.33-2.93c1.26,0,2,0.35,2.32,0.74v-4.24
			H50.12z M44.48,16.9v4.01c0,1.26,0.47,1.9,1.66,1.9c1.55,0,1.91-0.99,1.91-2.35v-3.25c0-1.09-0.16-2.06-1.85-2.06
			C44.97,15.15,44.48,15.83,44.48,16.9z"/>
		<path class="st0" d="M52.86,14.05h2.07v9.87h-2.07V14.05z M52.87,10.39h2.07v2h-2.07V10.39z"/>
		<path class="st0" d="M57.66,17.05c0-1.98,0-2.52-0.03-3.01h1.97c0.04,0.22,0.08,0.57,0.08,0.99c0.44-0.72,1.32-1.14,2.71-1.14
			c1.62,0,2.92,0.62,2.92,2.43v7.6h-2.07v-7.33c0-0.96-0.48-1.44-1.56-1.44c-1.24,0-1.97,0.41-1.97,2.28v6.49h-2.07V17.05z"/>
		<path class="st0" d="M75.33,23.72c0,2-0.34,3.69-4.04,3.69c-3.09,0-3.67-1.38-3.67-2.46V24.9h2.08v0.06c0,0.49,0.28,1.27,1.7,1.27
			c1.53,0,1.86-0.76,1.86-2.18v-1.27c-0.39,0.67-1.19,1.03-2.51,1.03c-2.26,0-3.13-1.1-3.13-3.02v-3.96c0-1.74,1.13-2.94,3.44-2.94
			c1.52,0,2.21,0.52,2.42,1.02c0-0.28,0.07-0.65,0.11-0.86h1.79c-0.03,0.54-0.06,1.43-0.06,2.6V23.72z M69.71,16.9v3.78
			c0,1.27,0.49,1.89,1.62,1.89c1.69,0,1.96-1.13,1.96-2.45V17.2c0-1.14-0.18-2.05-1.76-2.05C70.25,15.15,69.71,15.78,69.71,16.9z"/>
		<path class="st0" d="M78.05,23.92V10.39h2.07v13.53H78.05z"/>
		<path class="st0" d="M90.16,16.85v4.13c0,2.14-1.52,3.1-3.9,3.1c-2.4,0-3.83-0.94-3.83-3.04v-4.22c0-1.9,1.51-2.92,3.91-2.92
			C88.84,13.89,90.16,14.97,90.16,16.85z M84.52,16.81v4.27c0,1.08,0.54,1.76,1.78,1.76c1.15,0,1.77-0.53,1.77-1.78V16.8
			c0-0.97-0.48-1.67-1.77-1.67C85.05,15.12,84.52,15.73,84.52,16.81z"/>
		<path class="st0" d="M99.76,16.85v4.13c0,2.14-1.52,3.1-3.9,3.1c-2.4,0-3.83-0.94-3.83-3.04v-4.22c0-1.9,1.51-2.92,3.91-2.92
			C98.44,13.89,99.76,14.97,99.76,16.85z M94.12,16.81v4.27c0,1.08,0.54,1.76,1.78,1.76c1.15,0,1.77-0.53,1.77-1.78V16.8
			c0-0.97-0.48-1.67-1.77-1.67C94.65,15.12,94.12,15.73,94.12,16.81z"/>
		<path class="st0" d="M104.11,18.66h0.04c0.72-1.09,2.37-3.37,3.25-4.62h2.18l-2.8,3.62l3.14,6.26h-2.26L105.37,19l-1.26,1.59v3.32
			h-2.05V10.39h2.05V18.66z"/>
	</g>
</g>
<path class="st1" d="M112,29H7c-1.66,0-3-1.34-3-3V10c0-1.66,1.34-3,3-3h105c1.66,0,3,1.34,3,3v16C115,27.66,113.66,29,112,29z"/>
<path class="st1" d="M114,31H9c-1.66,0-3-1.34-3-3V12c0-1.66,1.34-3,3-3h105c1.66,0,3,1.34,3,3v16C117,29.66,115.66,31,114,31z"/>
</svg>
